# xmcd
# Copyright (C) 1995-1998 Ti Kan
#
# Track frame offsets:
#       150
#       11846
#       21531
#       33516
#       44441
#       54469
#       66062
#       72367
#       82187
#       97331
#       104335
#       115169
#       125210
#       135593
#       142356
#       148416
#       154601
#       161008
#       166744
#       173849
#       181258
#       187388
#       193872
#       200737
#       206772
#       212492
#
# Disc length: 2914 seconds
#
# Revision: 0
# Processed by: cddbd v1.4PL0 Copyright (c) Steve Scherf et al.
# Submitted via: CD-Transfer v1.0
#
DISCID=a40b601a
DTITLE=Hörspiel By Gion Linder Und Peter Wäch - 
DYEAR=1900
DGENRE=
TTITLE0=Starch Im Cho 2003-06-24 Dienstag
TTITLE1=Starch Im Cho 2003-06-25 Mittwoch
TTITLE2=Starch Im Cho 2003-06-26 Donnerstag
TTITLE3=Starch Im Cho 2003-06-27 Freitag
TTITLE4=Starch Im Cho 2003-06-28 Samstag
TTITLE5=Starch Im Cho 2003-06-29 Sonntag
TTITLE6=Starch Im Cho 2003-06-30 Montag
TTITLE7=Starch Im Cho 2003-07-01 Dienstag
TTITLE8=Starch Im Cho 2003-07-02 Mittwoch
TTITLE9=Starch Im Cho 2003-07-03 Donnerstag
TTITLE10=Starch Im Cho 2003-07-04 Freitag
TTITLE11=Starch Im Cho 2003-07-05 Samstag
TTITLE12=Starch Im Cho 2003-07-06 Sonntag
TTITLE13=Zwee Manne Säged Jaa 2003-06-24 Dienstag
TTITLE14=Zwee Manne Säged Jaa 2003-06-25 Mittwoch
TTITLE15=Zwee Manne Säged Jaa 2003-06-26 Donnerstag
TTITLE16=Zwee Manne Säged Jaa 2003-06-27 Freitag
TTITLE17=Zwee Manne Säged Jaa 2003-06-28 Samstag
TTITLE18=Zwee Manne Säged Jaa 2003-06-29 Sonntag
TTITLE19=Zwee Manne Säged Jaa 2003-06-30 Montag
TTITLE20=Zwee Manne Säged Jaa 2003-07-01 Dienstag
TTITLE21=Zwee Manne Säged Jaa 2003-07-02 Mittwoch
TTITLE22=Zwee Manne Säged Jaa 2003-07-03 Donnerstag
TTITLE23=Zwee Manne Säged Jaa 2003-07-04 Freitag
TTITLE24=Zwee Manne Säged Jaa 2003-07-05 Samstag
TTITLE25=Zwee Manne Säged Jaa 2003-07-06 Sonntag
EXTD=
EXTT0=
EXTT1=
EXTT2=
EXTT3=
EXTT4=
EXTT5=
EXTT6=
EXTT7=
EXTT8=
EXTT9=
EXTT10=
EXTT11=
EXTT12=
EXTT13=
EXTT14=
EXTT15=
EXTT16=
EXTT17=
EXTT18=
EXTT19=
EXTT20=
EXTT21=
EXTT22=
EXTT23=
EXTT24=
EXTT25=
PLAYORDER=
